<svg width="1017" height="210" viewBox="0 0 1017 210" fill="none" xmlns="http://www.w3.org/2000/svg">
<path d="M104.53 209.29C162.183 209.29 208.92 162.553 208.92 104.9C208.92 47.247 162.183 0.51001 104.53 0.51001C46.877 0.51001 0.140015 47.247 0.140015 104.9C0.140015 162.553 46.877 209.29 104.53 209.29Z" fill="#00AAF0"/>
<path d="M122.58 36.18H84.89C82.41 36.18 80.15 37.08 78.57 38.66L50.14 66.64C48.11 68.67 46.98 71.6 46.98 74.31V134.79C46.98 147.7 57.54 158.26 70.45 158.26H122.81C135.72 158.26 146.28 147.7 146.28 134.79V59.87C146.28 46.78 135.67 36.17 122.58 36.17V36.18ZM138.38 134.8C138.38 143.36 131.37 150.37 122.81 150.37H70.45C61.89 150.37 54.88 143.36 54.88 134.8V74.32C54.88 73.87 54.88 73.64 55.11 73.19L65.94 72.96C66.62 72.96 67.52 72.96 68.2 72.73C74.52 72.05 80.16 67.77 82.64 62.12C83.32 60.54 83.77 58.96 83.99 57.16V44.75L84.22 44.52C84.45 44.29 84.67 44.29 84.9 44.29H122.81C131.37 44.29 138.38 51.3 138.38 59.86V134.78V134.8ZM153.73 56.27C153.73 56.27 154.18 77.26 154.18 78.84V138.87C154.18 153.76 141.99 165.95 127.1 165.95H63.24C68.2 170.69 74.97 173.62 82.42 173.62H127.1C146.34 173.62 162.08 157.88 162.08 138.64V78.84C162.08 70.26 158.92 62.37 153.73 56.27ZM92.8 61.23H127.33C128.83 61.23 130.04 62.44 130.04 63.94C130.04 65.44 128.83 66.65 127.33 66.65H92.8C91.3 66.65 90.09 65.44 90.09 63.94C90.09 62.44 91.3 61.23 92.8 61.23ZM92.8 73.64H127.33C128.83 73.64 130.04 74.85 130.04 76.35C130.04 77.85 128.83 79.06 127.33 79.06H92.8C91.3 79.06 90.09 77.85 90.09 76.35C90.09 74.85 91.3 73.64 92.8 73.64ZM92.8 95.08H127.33C128.83 95.08 130.04 96.29 130.04 97.79C130.04 99.29 128.83 100.5 127.33 100.5H92.8C91.3 100.5 90.09 99.29 90.09 97.79C90.09 96.29 91.3 95.08 92.8 95.08ZM92.8 110.65H127.33C128.83 110.65 130.04 111.86 130.04 113.36C130.04 114.86 128.83 116.07 127.33 116.07H92.8C91.3 116.07 90.09 114.86 90.09 113.36C90.09 111.86 91.3 110.65 92.8 110.65ZM92.8 126.22H127.33C128.83 126.22 130.04 127.43 130.04 128.93C130.04 130.43 128.83 131.64 127.33 131.64H92.8C91.3 131.64 90.09 130.43 90.09 128.93C90.09 127.43 91.3 126.22 92.8 126.22ZM74.56 126.35V128.94C74.56 130.26 73.49 131.33 72.17 131.33C70.85 131.33 69.78 130.26 69.78 128.94V126.69C67.72 126.6 65.7 126.22 64.02 125.68C62.55 125.21 61.7 123.67 62.09 122.18C62.5 120.56 64.2 119.59 65.79 120.13C67.38 120.67 69.15 121.03 71.05 121.03C73.84 121.03 75.74 119.95 75.74 118C75.74 116.05 74.18 114.97 70.56 113.75C65.33 111.99 61.76 109.55 61.76 104.81C61.76 100.51 64.79 97.14 70.02 96.11V93.86C70.02 92.54 71.09 91.47 72.41 91.47C73.73 91.47 74.8 92.54 74.8 93.86V95.77C76.58 95.85 78.04 96.09 79.26 96.41C80.75 96.81 81.64 98.34 81.25 99.84C80.86 101.37 79.28 102.31 77.76 101.86C76.6 101.52 75.17 101.24 73.43 101.24C70.26 101.24 69.23 102.61 69.23 103.98C69.23 105.59 70.94 106.62 75.09 108.18C80.91 110.23 83.25 112.92 83.25 117.32C83.25 121.72 80.17 125.38 74.56 126.36V126.35Z" fill="white"/>
<path d="M235.6 59.43H248.95V170.72H235.6V59.43Z" fill="#00AAF0"/>
<path d="M369.15 170.72V115.08C369.15 108.11 368.11 101.73 366.03 95.94C363.95 90.15 361.02 85.22 357.24 81.14C353.46 77.06 348.89 73.91 343.55 71.68C338.21 69.45 332.27 68.34 325.74 68.34C319.21 68.34 313.28 69.45 307.93 71.68C302.59 73.91 298.02 77.06 294.24 81.14C290.46 85.22 287.52 90.15 285.45 95.94C283.37 101.73 282.33 108.11 282.33 115.08V170.72H268.98V115.08C268.98 106.18 270.35 98.13 273.1 90.93C275.84 83.73 279.7 77.54 284.67 72.34C289.64 67.15 295.61 63.14 302.59 60.32C309.56 57.5 317.28 56.09 325.74 56.09C334.2 56.09 341.91 57.5 348.89 60.32C355.86 63.14 361.84 67.15 366.81 72.34C371.78 77.54 375.64 83.73 378.38 90.93C381.12 98.13 382.5 106.18 382.5 115.08V170.72H369.15Z" fill="#00AAF0"/>
<path d="M378.5 59.43H393.19L438.37 155.14L483.55 59.43H498.24L445.71 170.72H431.02L378.49 59.43H378.5Z" fill="#00AAF0"/>
<path d="M500.47 115.08C500.47 106.18 501.88 98.13 504.7 90.93C507.52 83.73 511.52 77.54 516.72 72.34C521.91 67.15 528.11 63.14 535.31 60.32C542.51 57.5 550.56 56.09 559.46 56.09C568.36 56.09 576.41 57.5 583.61 60.32C590.81 63.14 597 67.15 602.2 72.34C607.39 77.54 611.4 83.73 614.22 90.93C617.04 98.13 618.45 106.18 618.45 115.08C618.45 123.98 617.04 132.03 614.22 139.23C611.4 146.43 607.39 152.62 602.2 157.82C597 163.01 590.81 167.02 583.61 169.84C576.41 172.66 568.36 174.07 559.46 174.07C550.56 174.07 542.51 172.66 535.31 169.84C528.11 167.02 521.92 163.02 516.72 157.82C511.53 152.63 507.52 146.43 504.7 139.23C501.88 132.03 500.47 123.98 500.47 115.08ZM513.82 115.08C513.82 122.06 514.89 128.43 517.05 134.22C519.2 140.01 522.28 144.94 526.29 149.02C530.3 153.1 535.12 156.25 540.76 158.48C546.4 160.71 552.63 161.82 559.46 161.82C566.29 161.82 572.52 160.71 578.16 158.48C583.8 156.25 588.62 153.1 592.63 149.02C596.64 144.94 599.71 140.01 601.87 134.22C604.02 128.43 605.1 122.05 605.1 115.08C605.1 108.11 604.02 101.73 601.87 95.94C599.72 90.15 596.64 85.22 592.63 81.14C588.62 77.06 583.8 73.91 578.16 71.68C572.52 69.45 566.29 68.34 559.46 68.34C552.63 68.34 546.4 69.45 540.76 71.68C535.12 73.91 530.3 77.06 526.29 81.14C522.28 85.22 519.2 90.15 517.05 95.94C514.9 101.73 513.82 108.11 513.82 115.08Z" fill="#00AAF0"/>
<path d="M629.56 23.82C629.56 19.81 630.78 16.59 633.23 14.14C635.68 11.69 638.91 10.47 642.91 10.47C646.91 10.47 650.14 11.69 652.59 14.14C655.04 16.59 656.26 19.82 656.26 23.82C656.26 27.82 655.04 31.05 652.59 33.5C650.14 35.95 646.91 37.17 642.91 37.17C638.91 37.17 635.68 35.95 633.23 33.5C630.78 31.05 629.56 27.82 629.56 23.82ZM636.24 59.43H649.59V170.72H636.24V59.43Z" fill="#00AAF0"/>
<path d="M725.71 56.09C733.13 56.09 739.99 57.13 746.3 59.21C752.6 61.29 758.06 64.22 762.66 68C767.26 71.78 770.9 76.23 773.57 81.35C776.24 86.47 777.58 92.15 777.58 98.38H764.23C764.23 94.23 763.37 90.33 761.67 86.69C759.96 83.06 757.44 79.87 754.1 77.12C750.76 74.38 746.68 72.22 741.86 70.66C737.04 69.1 731.58 68.32 725.5 68.32C711.7 68.32 700.79 72.4 692.78 80.56C684.77 88.72 680.76 100.22 680.76 115.06C680.76 122.04 681.87 128.41 684.1 134.2C686.33 139.99 689.44 144.92 693.45 149C697.46 153.08 702.35 156.23 708.14 158.46C713.93 160.69 720.38 161.8 727.5 161.8C733.73 161.8 739.22 161.02 743.97 159.46C748.72 157.9 752.72 155.79 755.99 153.12C759.25 150.45 761.7 147.3 763.34 143.66C764.97 140.03 765.79 136.13 765.79 131.97H779.14C779.14 138.2 777.77 143.88 775.02 149C772.27 154.12 768.57 158.54 763.89 162.24C759.22 165.95 753.76 168.84 747.53 170.92C741.3 173 734.62 174.04 727.5 174.04C718.45 174.04 710.21 172.63 702.79 169.81C695.37 166.99 689.03 162.99 683.76 157.79C678.49 152.6 674.45 146.4 671.63 139.2C668.81 132 667.4 123.95 667.4 115.05C667.4 106.15 668.88 97.62 671.85 90.34C674.82 83.07 678.9 76.87 684.09 71.75C689.28 66.63 695.44 62.74 702.56 60.06C709.68 57.39 717.4 56.05 725.71 56.05V56.09Z" fill="#00AAF0"/>
<path d="M806.06 119.97C807.1 132.73 811.74 142.9 819.97 150.46C828.2 158.03 839.07 161.81 852.58 161.81C858.81 161.81 864.3 161.03 869.05 159.47C873.8 157.91 877.8 155.8 881.07 153.13C884.33 150.46 886.78 147.31 888.42 143.67C890.05 140.04 890.87 136.14 890.87 131.98H904.22C904.22 138.21 902.85 143.89 900.1 149.01C897.35 154.13 893.65 158.55 888.97 162.25C884.3 165.96 878.84 168.85 872.61 170.93C866.38 173.01 859.7 174.05 852.58 174.05C843.53 174.05 835.29 172.64 827.87 169.82C820.45 167 814.11 163 808.84 157.8C803.57 152.61 799.53 146.41 796.71 139.21C793.89 132.01 792.48 123.96 792.48 115.06C792.48 106.16 793.89 98.11 796.71 90.91C799.53 83.71 803.39 77.52 808.28 72.32C813.18 67.13 819.04 63.12 825.86 60.3C832.68 57.48 840.1 56.07 848.12 56.07C857.17 56.07 865.26 57.44 872.38 60.19C879.5 62.94 885.55 66.91 890.52 72.1C895.49 77.29 899.27 83.64 901.87 91.13C904.46 98.62 905.77 107.04 905.77 116.39V119.95H806.06V119.97ZM891.98 107.73C891.24 100.76 889.64 94.78 887.19 89.81C884.74 84.84 881.59 80.76 877.73 77.57C873.87 74.38 869.46 72.04 864.49 70.56C859.52 69.08 854.14 68.33 848.35 68.33C836.48 68.33 826.83 71.89 819.41 79.01C811.99 86.13 807.61 95.7 806.28 107.72H891.97L891.98 107.73Z" fill="#00AAF0"/>
<path d="M912.45 170.72L956.08 115.08L912.45 59.44H929.14L964.31 104.4L999.48 59.44H1016.17L972.77 115.08L1016.17 170.72H999.48L964.31 125.76L929.14 170.72H912.45Z" fill="#00AAF0"/>
<path d="M948.3 59.43L964.31 79.9L980.32 59.43H948.3Z" fill="#00AAF0"/>
<path d="M980.32 170.72L964.31 150.25L948.3 170.72H980.32Z" fill="#00AAF0"/>
</svg>
